<?xml version="1.0" standalone="no"?>
<!DOCTYPE svg PUBLIC "-//W3C//DTD SVG 20010904//EN"
 "http://www.w3.org/TR/2001/REC-SVG-20010904/DTD/svg10.dtd">
<svg version="1.0" xmlns="http://www.w3.org/2000/svg"
 width="1024.000000pt" height="1024.000000pt" viewBox="0 0 1024.000000 1024.000000"
 preserveAspectRatio="xMidYMid meet">

<g transform="translate(0.000000,1024.000000) scale(0.100000,-0.100000)"
fill="#000000" stroke="none">
<path d="M5019 8777 c-34 -17 -50 -35 -71 -77 -25 -47 -28 -65 -28 -147 0 -98
11 -134 54 -181 77 -86 223 -70 293 31 24 35 28 52 31 127 5 106 -9 160 -53
209 -57 63 -149 78 -226 38z"/>
<path d="M4104 8436 c-112 -49 -112 -207 1 -257 38 -17 51 -18 87 -9 53 15
104 65 113 113 11 55 -24 120 -79 146 -49 24 -78 26 -122 7z"/>
<path d="M5983 8431 c-56 -26 -77 -67 -71 -139 4 -48 10 -60 41 -89 32 -29 44
-33 89 -33 86 0 148 56 148 135 0 107 -108 172 -207 126z"/>
<path d="M4816 8104 c-620 -84 -1182 -445 -1532 -985 -294 -452 -401 -990
-304 -1526 58 -323 205 -648 419 -928 25 -33 136 -153 247 -266 228 -233 306
-331 375 -474 81 -165 91 -219 98 -515 4 -140 10 -262 14 -271 19 -38 61 -49
191 -49 l126 0 0 283 c0 396 -22 519 -129 724 -75 141 -147 230 -383 468 -230
233 -283 293 -371 427 -148 225 -242 478 -283 758 -22 154 -15 430 16 575 136
644 611 1179 1227 1385 365 121 714 129 1077 23 579 -167 1059 -630 1249
-1203 68 -206 82 -297 82 -545 -1 -280 -29 -429 -128 -675 -106 -262 -228
-431 -532 -740 -122 -124 -250 -263 -284 -309 -81 -110 -164 -280 -198 -406
-26 -97 -27 -110 -31 -432 l-4 -333 122 0 c121 0 177 12 196 41 5 8 12 131 15
274 7 297 17 351 94 510 67 139 152 249 357 462 212 220 281 302 381 453 230
349 362 815 343 1220 -13 303 -87 592 -216 850 -147 293 -394 594 -641 780
-294 221 -661 374 -1021 425 -128 18 -436 18 -572 -1z"/>
<path d="M2965 7872 c-104 -50 -138 -166 -77 -263 33 -51 111 -123 164 -150
91 -47 222 1 257 94 20 53 13 119 -17 168 -31 48 -110 122 -156 146 -47 24
-125 27 -171 5z"/>
<path d="M7107 7876 c-82 -30 -200 -155 -212 -225 -18 -108 70 -211 182 -211
86 0 223 102 265 196 64 146 -83 297 -235 240z"/>
<path d="M4985 7523 c-65 -7 -85 -29 -96 -108 -14 -91 -27 -116 -70 -138 -49
-24 -85 -9 -132 53 -45 60 -78 83 -119 82 -17 0 -86 -28 -154 -61 -158 -78
-161 -83 -134 -213 26 -123 17 -157 -47 -199 -54 -34 -109 -38 -187 -14 -78
24 -120 20 -160 -15 -44 -39 -145 -206 -153 -253 -5 -34 -1 -40 71 -116 71
-74 76 -83 76 -123 -1 -101 -60 -168 -167 -188 -134 -25 -143 -40 -143 -243 0
-177 9 -193 125 -217 33 -7 72 -19 88 -28 38 -23 74 -78 87 -135 13 -58 1 -86
-62 -142 -56 -50 -78 -83 -78 -119 0 -32 62 -155 116 -229 50 -68 65 -73 184
-57 89 12 103 11 143 -4 25 -9 61 -33 81 -52 31 -31 36 -41 36 -83 0 -26 -7
-70 -15 -97 -19 -62 -19 -113 0 -139 9 -10 61 -42 117 -70 l102 -50 34 -90
c18 -49 36 -98 39 -107 8 -27 16 -22 42 30 62 125 159 252 320 417 124 127
230 251 258 301 l21 39 -161 0 c-139 0 -173 3 -241 23 -356 103 -605 436 -606
808 -1 447 317 809 753 857 234 26 447 -50 613 -218 253 -257 295 -670 118
-1167 -38 -106 -154 -340 -214 -433 -68 -104 -173 -234 -295 -365 -301 -323
-405 -497 -471 -795 -11 -53 -17 -158 -21 -422 l-6 -353 420 0 421 0 5 418 c6
454 10 499 68 679 36 111 83 218 141 320 38 67 46 75 112 109 127 66 134 83
95 222 -26 94 -20 129 29 174 61 55 92 63 186 50 103 -15 129 -15 161 0 48 22
182 257 171 301 -3 13 -35 54 -71 91 -36 38 -66 78 -66 90 -5 70 21 157 55
185 10 8 58 26 108 41 129 37 133 43 133 213 0 143 -12 200 -48 218 -11 7 -52
18 -91 26 -39 8 -78 19 -88 24 -28 15 -68 93 -75 146 -7 61 11 98 70 148 24
20 51 49 60 65 23 38 11 73 -66 197 -89 142 -112 152 -252 112 -88 -26 -131
-21 -180 22 -52 46 -60 90 -36 194 25 102 19 123 -41 161 -77 49 -224 114
-258 114 -33 0 -51 -15 -136 -114 -25 -29 -38 -36 -68 -36 -53 0 -92 41 -101
106 -20 147 -30 155 -192 159 -65 2 -136 1 -158 -2z"/>
<path d="M2631 6892 c-95 -51 -92 -199 6 -247 42 -20 86 -19 133 5 47 24 70
64 70 122 0 109 -111 172 -209 120z"/>
<path d="M7434 6891 c-47 -29 -64 -59 -64 -116 0 -111 92 -174 193 -131 80 34
109 119 67 195 -39 68 -130 92 -196 52z"/>
<path d="M2405 6081 c-103 -25 -168 -115 -150 -204 29 -133 168 -198 325 -151
143 42 194 202 97 302 -51 53 -174 77 -272 53z"/>
<path d="M7623 6076 c-91 -29 -133 -84 -133 -176 0 -96 56 -159 159 -181 168
-36 311 50 311 186 0 54 -10 77 -53 123 -54 56 -185 79 -284 48z"/>
<path d="M2641 5212 c-52 -26 -76 -65 -75 -122 1 -77 45 -127 122 -137 49 -7
104 18 133 59 84 118 -50 267 -180 200z"/>
<path d="M7450 5223 c-31 -11 -71 -58 -81 -96 -32 -119 90 -216 200 -159 99
50 105 176 11 240 -32 21 -93 28 -130 15z"/>
<path d="M4243 2871 c-76 -8 -96 -18 -119 -62 -34 -66 -5 -152 64 -192 32 -19
62 -19 919 -18 969 2 914 -1 967 61 49 59 27 166 -41 201 -24 12 -164 14 -873
15 -465 1 -877 -2 -917 -5z"/>
<path d="M4343 2383 c-30 -6 -71 -56 -78 -97 -9 -45 15 -97 61 -132 l37 -29
736 0 c724 0 737 0 771 21 43 25 80 78 80 113 0 40 -33 92 -71 113 -32 17 -75
18 -774 17 -407 -1 -750 -4 -762 -6z"/>
<path d="M4460 1914 c0 -19 49 -80 106 -132 75 -69 177 -123 289 -154 116 -31
384 -31 499 0 161 44 299 136 377 248 l30 44 -651 0 c-357 0 -650 -3 -650 -6z"/>
</g>
</svg>
